<svg id="kity_svg_6" xmlns="http://www.w3.org/2000/svg" xmlns:xlink="http://www.w3.org/1999/xlink" version="1.1" width="1260" height="1125" style="background: rgb(251, 251, 251); visibility: visible;" viewBox="0 0 1260 1125"><defs id="kity_defs_7"><linearGradient id="kity_linearGradient_17" x1="0" y1="0" x2="0" y2="1"><stop id="kity_stop_18" offset="0" stop-color="rgb(255, 255, 255)"></stop><stop id="kity_stop_19" offset="1" stop-color="rgb(204, 204, 204)"></stop></linearGradient><marker id="kity_marker_2" orient="auto" refX="6" refY="0" viewBox="-7 -7 14 14" markerWidth="7" markerHeight="7" markerUnits="userSpaceOnUse"><path id="kity_path_3" fill="rgb(115, 161, 191)" stroke="none" d="M6,0A6,6,0,1,1,-6,0A6,6,0,1,1,6,0"></path></marker></defs><g id="kity_g_8"><g id="minder1" text-rendering="optimize-speed"><g id="minder_connect_group1"><path id="kity_path_31" fill="none" stroke="rgb(115, 161, 191)" stroke-width="1" d="M580.5,535.5A206,452,0,0,1,786.5,83.5"></path><path id="kity_path_33" fill="none" stroke="rgb(115, 161, 191)" stroke-width="1" d="M988.5,83.5C1003.5,83.5,1003.5,45.5,1018.5,45.5L1073.5,45.5"></path><path id="kity_path_35" fill="none" stroke="rgb(115, 161, 191)" stroke-width="1" d="M988.5,83.5C1003.5,83.5,1003.5,97.5,1018.5,97.5L1086.5,97.5"></path><path id="kity_path_37" fill="none" stroke="rgb(115, 161, 191)" stroke-width="1" d="M988.5,83.5C1003.5,83.5,1003.5,149.5,1018.5,149.5L1122.5,149.5"></path><path id="kity_path_39" fill="none" stroke="rgb(115, 161, 191)" stroke-width="1" d="M580.5,535.5A206,26,0,0,1,786.5,509.5"></path><path id="kity_path_41" fill="none" stroke="rgb(115, 161, 191)" stroke-width="1" d="M926.5,509.5C941.5,509.5,941.5,211.5,956.5,211.5L1051.5,211.5"></path><path id="kity_path_43" fill="none" stroke="rgb(115, 161, 191)" stroke-width="1" d="M918.4886879999999,510.213336C937.494344,510.213336,937.494344,263.5,956.5,263.5L1047.5,263.5"></path><path id="kity_path_45" fill="none" stroke="rgb(115, 161, 191)" stroke-width="1" d="M918.4886879999999,510.213336C937.494344,510.213336,937.494344,367.5,956.5,367.5L1012.5,367.5"></path><path id="kity_path_47" fill="none" stroke="rgb(115, 161, 191)" stroke-width="1" d="M1012.5,367.5C1027.5,367.5,1027.5,315.5,1042.5,315.5L1240.5,315.5"></path><path id="kity_path_49" fill="none" stroke="rgb(115, 161, 191)" stroke-width="1" d="M1012.5,367.5C1027.5,367.5,1027.5,367.5,1042.5,367.5L1121.5,367.5"></path><path id="kity_path_51" fill="none" stroke="rgb(115, 161, 191)" stroke-width="1" d="M1012.5,367.5C1027.5,367.5,1027.5,419.5,1042.5,419.5L1158.5,419.5"></path><path id="kity_path_53" fill="none" stroke="rgb(115, 161, 191)" stroke-width="1" d="M918.4886879999999,510.213336C937.494344,510.213336,937.494344,471.5,956.5,471.5L1088.5,471.5"></path><path id="kity_path_55" fill="none" stroke="rgb(115, 161, 191)" stroke-width="1" d="M918.4886879999999,510.213336C937.494344,510.213336,937.494344,523.5,956.5,523.5L1012.5,523.5"></path><path id="kity_path_57" fill="none" stroke="rgb(115, 161, 191)" stroke-width="1" d="M909.206132170096,511.0398649437586C932.853066085048,511.0398649437586,932.853066085048,575.5,956.5,575.5L1072.5,575.5"></path><path id="kity_path_59" fill="none" stroke="rgb(115, 161, 191)" stroke-width="1" d="M909.206132170096,511.0398649437586C932.853066085048,511.0398649437586,932.853066085048,627.5,956.5,627.5L1096.5,627.5"></path><path id="kity_path_61" fill="none" stroke="rgb(115, 161, 191)" stroke-width="1" d="M909.206132170096,511.0398649437586C932.853066085048,511.0398649437586,932.853066085048,705.5,956.5,705.5L1024.5,705.5"></path><path id="kity_path_63" fill="none" stroke="rgb(115, 161, 191)" stroke-width="1" d="M1024.5,705.5C1039.5,705.5,1039.5,679.5,1054.5,679.5L1155.5,679.5"></path><path id="kity_path_65" fill="none" stroke="rgb(115, 161, 191)" stroke-width="1" d="M1024.5,705.5C1039.5,705.5,1039.5,731.5,1054.5,731.5L1211.5,731.5"></path><path id="kity_path_67" fill="none" stroke="rgb(115, 161, 191)" stroke-width="1" d="M909.206132170096,511.0398649437586C932.853066085048,511.0398649437586,932.853066085048,783.5,956.5,783.5L1089.5,783.5"></path><path id="kity_path_69" fill="none" stroke="rgb(115, 161, 191)" stroke-width="1" d="M918.4886879999999,510.213336C937.494344,510.213336,937.494344,835.5,956.5,835.5L1155.5,835.5"></path><path id="kity_path_71" fill="none" stroke="rgb(115, 161, 191)" stroke-width="1" d="M580.5,535.5A206,452,0,0,0,786.5,987.5"></path><path id="kity_path_73" fill="none" stroke="rgb(115, 161, 191)" stroke-width="1" d="M969.5,987.5C984.5,987.5,984.5,897.5,999.5,897.5L1142.5,897.5"></path><path id="kity_path_75" fill="none" stroke="rgb(115, 161, 191)" stroke-width="1" d="M969.5,987.5C984.5,987.5,984.5,949.5,999.5,949.5L1101.5,949.5"></path><path id="kity_path_77" fill="none" stroke="rgb(115, 161, 191)" stroke-width="1" d="M969.5,987.5C984.5,987.5,984.5,1001.5,999.5,1001.5L1102.5,1001.5"></path><path id="kity_path_79" fill="none" stroke="rgb(115, 161, 191)" stroke-width="1" d="M969.5,987.5C984.5,987.5,984.5,1053.5,999.5,1053.5L1173.5,1053.5"></path><path id="kity_path_81" fill="none" stroke="rgb(115, 161, 191)" stroke-width="1" d="M969.5,987.5C984.5,987.5,984.5,1105.5,999.5,1105.5L1186.5,1105.5"></path><path id="kity_path_83" fill="none" stroke="rgb(115, 161, 191)" stroke-width="1" d="M580.5,535.5A206,132,0,0,0,374.5,403.5"></path><path id="kity_path_85" fill="none" stroke="rgb(115, 161, 191)" stroke-width="1" d="M248.5,403.5C233.5,403.5,233.5,391.5,218.5,391.5L139.5,391.5"></path><path id="kity_path_87" fill="none" stroke="rgb(115, 161, 191)" stroke-width="1" d="M248.5,403.5C233.5,403.5,233.5,443.5,218.5,443.5L150.5,443.5"></path><path id="kity_path_89" fill="none" stroke="rgb(115, 161, 191)" stroke-width="1" d="M580.5,535.5A206,132,0,0,1,374.5,667.5"></path><path id="kity_path_91" fill="none" stroke="rgb(115, 161, 191)" stroke-width="1" d="M303.5,667.5C288.5,667.5,288.5,588.5,273.5,588.5L219.5,588.5"></path><path id="kity_path_93" fill="none" stroke="rgb(115, 161, 191)" stroke-width="1" d="M219.5,588.5C202.5,588.5,202.5,519.5,185.5,519.5L102.5,519.5"></path><path id="kity_path_95" fill="none" stroke="rgb(115, 161, 191)" stroke-width="1" d="M219.5,588.5C204.5,588.5,204.5,567.5,189.5,567.5L20.5,567.5"></path><path id="kity_path_97" fill="none" stroke="rgb(115, 161, 191)" stroke-width="1" d="M219.5,588.5C204.5,588.5,204.5,619.5,189.5,619.5L49.5,619.5"></path><path id="kity_path_99" fill="none" stroke="rgb(115, 161, 191)" stroke-width="1" d="M219.5,588.5C204.5,588.5,204.5,671.5,189.5,671.5L133.5,671.5"></path><path id="kity_path_101" fill="none" stroke="rgb(115, 161, 191)" stroke-width="1" d="M303.5,667.5C284,667.5,284,729.5,264.5,729.5L32.5,729.5"></path><path id="kity_path_103" fill="none" stroke="rgb(115, 161, 191)" stroke-width="1" d="M303.5,667.5C288.5,667.5,288.5,775.5,273.5,775.5L194.5,775.5"></path></g><g id="minder_node1"><path id="node_outline1" fill="rgb(115, 161, 191)" stroke="rgb(115, 161, 191)" d="M497.5,515.5h166a5,5,0,0,1,5,5v30a5,5,0,0,1,-5,5h-166a5,5,0,0,1,-5,-5v-30a5,5,0,0,1,5,-5z" stroke-width="3"></path><g id="node_text1" fill="white"><text id="kity_text_22" text-rendering="inherit" font-size="16" dy=".8em" y="525.0999999046326" x="516.5">123ABCDF11345</text></g></g><g id="kity_g_12"><path id="kity_path_13" fill="none" stroke="none" d="M516.5,535.5h0v0h0z"></path></g><g id="kity_g_14"><path id="kity_path_15" fill="none" stroke="none" d="M516.5,535.5h0v0h0z"></path><path id="kity_path_16" fill="none" stroke="none"></path></g><g id="minder_node2"><g id="node_expander4" style="cursor: pointer;"><path id="kity_path_228" fill="white" stroke="gray" d="M787.5,83.5A6,6,0,1,1,775.5,83.5A6,6,0,1,1,787.5,83.5"></path><path id="kity_path_229" fill="none" stroke="gray" d="M777,83.5L786,83.5"></path></g><path id="node_outline5" fill="rgb(238, 243, 246)" stroke="rgb(115, 161, 191)" d="M791.5,70.5h194a3,3,0,0,1,3,3v20a3,3,0,0,1,-3,3h-194a3,3,0,0,1,-3,-3v-20a3,3,0,0,1,3,-3z" stroke-width="1"></path><g id="node_text5" fill="black"><text id="kity_text_111" text-rendering="inherit" font-size="14" dy=".8em" y="74.40000009536743" x="808.5">千度系列（Python GUI）</text></g></g><g id="minder_node3"><g id="node_expander1" display="none" style="cursor: pointer;"><path id="kity_path_219" fill="white" stroke="gray" d="M1028.5,31.5A6,6,0,1,1,1016.5,31.5A6,6,0,1,1,1028.5,31.5"></path><path id="kity_path_220" fill="none" stroke="gray"></path></g><path id="node_outline2" fill="none" stroke="none" d="M1033.5,20.5h35a5,5,0,0,1,5,5v12a5,5,0,0,1,-5,5h-35a5,5,0,0,1,-5,-5v-12a5,5,0,0,1,5,-5z"></path><g id="node_text2" fill="black"><text id="kity_text_105" text-rendering="inherit" font-size="12" dy=".8em" y="23.700000047683716" x="1038.5">网盘</text></g></g><g id="minder_node4"><g id="node_expander2" display="none" style="cursor: pointer;"><path id="kity_path_222" fill="white" stroke="gray" d="M1028.5,83.5A6,6,0,1,1,1016.5,83.5A6,6,0,1,1,1028.5,83.5"></path><path id="kity_path_223" fill="none" stroke="gray"></path></g><path id="node_outline3" fill="none" stroke="none" d="M1033.5,72.5h48a5,5,0,0,1,5,5v12a5,5,0,0,1,-5,5h-48a5,5,0,0,1,-5,-5v-12a5,5,0,0,1,5,-5z"></path><g id="node_text3" fill="black"><text id="kity_text_107" text-rendering="inherit" font-size="12" dy=".8em" y="75.70000004768372" x="1038.5">计算器</text></g></g><g id="minder_node5"><g id="node_expander3" display="none" style="cursor: pointer;"><path id="kity_path_225" fill="white" stroke="gray" d="M1028.5,135.5A6,6,0,1,1,1016.5,135.5A6,6,0,1,1,1028.5,135.5"></path><path id="kity_path_226" fill="none" stroke="gray"></path></g><path id="node_outline4" fill="none" stroke="none" d="M1033.5,124.5h84a5,5,0,0,1,5,5v12a5,5,0,0,1,-5,5h-84a5,5,0,0,1,-5,-5v-12a5,5,0,0,1,5,-5z"></path><g id="node_text4" fill="black"><text id="kity_text_109" text-rendering="inherit" font-size="12" dy=".8em" y="127.70000004768372" x="1038.5">考试作答系统</text></g></g><g id="minder_node6"><g id="node_expander20" style="cursor: pointer;"><path id="kity_path_276" fill="white" stroke="gray" d="M787.5,509.5A6,6,0,1,1,775.5,509.5A6,6,0,1,1,787.5,509.5"></path><path id="kity_path_277" fill="none" stroke="gray" d="M777,509.5L786,509.5"></path></g><path id="node_outline21" fill="rgb(238, 243, 246)" stroke="rgb(115, 161, 191)" d="M791.5,496.5h132a3,3,0,0,1,3,3v20a3,3,0,0,1,-3,3h-132a3,3,0,0,1,-3,-3v-20a3,3,0,0,1,3,-3z" stroke-width="1"></path><g id="node_text21" fill="black"><text id="kity_text_143" text-rendering="inherit" font-size="14" dy=".8em" y="500.40000009536743" x="808.5">杂项（小工具）</text></g></g><g id="minder_node7"><g id="node_expander5" display="none" style="cursor: pointer;"><path id="kity_path_231" fill="white" stroke="gray" d="M966.5,197.5A6,6,0,1,1,954.5,197.5A6,6,0,1,1,966.5,197.5"></path><path id="kity_path_232" fill="none" stroke="gray"></path></g><path id="node_outline6" fill="none" stroke="none" d="M971.5,186.5h75a5,5,0,0,1,5,5v12a5,5,0,0,1,-5,5h-75a5,5,0,0,1,-5,-5v-12a5,5,0,0,1,5,-5z"></path><g id="node_text6" fill="black"><text id="kity_text_113" text-rendering="inherit" font-size="12" dy=".8em" y="189.70000004768372" x="976.5">MD5码计算</text></g></g><g id="minder_node8"><g id="node_expander6" display="none" style="cursor: pointer;"><path id="kity_path_234" fill="white" stroke="gray" d="M966.5,249.5A6,6,0,1,1,954.5,249.5A6,6,0,1,1,966.5,249.5"></path><path id="kity_path_235" fill="none" stroke="gray"></path></g><path id="node_outline7" fill="none" stroke="none" d="M971.5,238.5h71a5,5,0,0,1,5,5v12a5,5,0,0,1,-5,5h-71a5,5,0,0,1,-5,-5v-12a5,5,0,0,1,5,-5z"></path><g id="node_text7" fill="black"><text id="kity_text_115" text-rendering="inherit" font-size="12" dy=".8em" y="241.70000004768372" x="976.5">二维码生成</text></g></g><g id="minder_node9"><g id="node_expander10" style="cursor: pointer;"><path id="kity_path_246" fill="white" stroke="gray" d="M966.5,353.5A6,6,0,1,1,954.5,353.5A6,6,0,1,1,966.5,353.5"></path><path id="kity_path_247" fill="none" stroke="gray" d="M956,353.5L965,353.5"></path></g><path id="node_outline11" fill="none" stroke="none" d="M971.5,342.5h36a5,5,0,0,1,5,5v12a5,5,0,0,1,-5,5h-36a5,5,0,0,1,-5,-5v-12a5,5,0,0,1,5,-5z"></path><g id="node_text11" fill="black"><text id="kity_text_123" text-rendering="inherit" font-size="12" dy=".8em" y="345.7000000476837" x="976.5">爬虫</text></g></g><g id="minder_node10"><g id="node_expander7" display="none" style="cursor: pointer;"><path id="kity_path_237" fill="white" stroke="gray" d="M1052.5,301.5A6,6,0,1,1,1040.5,301.5A6,6,0,1,1,1052.5,301.5"></path><path id="kity_path_238" fill="none" stroke="gray"></path></g><path id="node_outline8" fill="none" stroke="none" d="M1057.5,290.5h178a5,5,0,0,1,5,5v12a5,5,0,0,1,-5,5h-178a5,5,0,0,1,-5,-5v-12a5,5,0,0,1,5,-5z"></path><g id="node_text8" fill="black"><text id="kity_text_117" text-rendering="inherit" font-size="12" dy=".8em" y="293.7000000476837" x="1062.5">自动检测敏感词并进行web返回</text></g></g><g id="minder_node11"><g id="node_expander8" display="none" style="cursor: pointer;"><path id="kity_path_240" fill="white" stroke="gray" d="M1052.5,353.5A6,6,0,1,1,1040.5,353.5A6,6,0,1,1,1052.5,353.5"></path><path id="kity_path_241" fill="none" stroke="gray"></path></g><path id="node_outline9" fill="none" stroke="none" d="M1057.5,342.5h59a5,5,0,0,1,5,5v12a5,5,0,0,1,-5,5h-59a5,5,0,0,1,-5,-5v-12a5,5,0,0,1,5,-5z"></path><g id="node_text9" fill="black"><text id="kity_text_119" text-rendering="inherit" font-size="12" dy=".8em" y="345.7000000476837" x="1062.5">天气查询</text></g></g><g id="minder_node12"><g id="node_expander9" display="none" style="cursor: pointer;"><path id="kity_path_243" fill="white" stroke="gray" d="M1052.5,405.5A6,6,0,1,1,1040.5,405.5A6,6,0,1,1,1052.5,405.5"></path><path id="kity_path_244" fill="none" stroke="gray"></path></g><path id="node_outline10" fill="none" stroke="none" d="M1057.5,394.5h96a5,5,0,0,1,5,5v12a5,5,0,0,1,-5,5h-96a5,5,0,0,1,-5,-5v-12a5,5,0,0,1,5,-5z"></path><g id="node_text10" fill="black"><text id="kity_text_121" text-rendering="inherit" font-size="12" dy=".8em" y="397.7000000476837" x="1062.5">爬取并保存信息</text></g></g><g id="minder_node13"><g id="node_expander11" display="none" style="cursor: pointer;"><path id="kity_path_249" fill="white" stroke="gray" d="M966.5,457.5A6,6,0,1,1,954.5,457.5A6,6,0,1,1,966.5,457.5"></path><path id="kity_path_250" fill="none" stroke="gray"></path></g><path id="node_outline12" fill="none" stroke="none" d="M971.5,446.5h112a5,5,0,0,1,5,5v12a5,5,0,0,1,-5,5h-112a5,5,0,0,1,-5,-5v-12a5,5,0,0,1,5,-5z"></path><g id="node_text12" fill="black"><text id="kity_text_125" text-rendering="inherit" font-size="12" dy=".8em" y="449.7000000476837" x="976.5">语音识别 简单对话</text></g></g><g id="minder_node14"><g id="node_expander12" display="none" style="cursor: pointer;"><path id="kity_path_252" fill="white" stroke="gray" d="M966.5,509.5A6,6,0,1,1,954.5,509.5A6,6,0,1,1,966.5,509.5"></path><path id="kity_path_253" fill="none" stroke="gray"></path></g><path id="node_outline13" fill="none" stroke="none" d="M971.5,498.5h36a5,5,0,0,1,5,5v12a5,5,0,0,1,-5,5h-36a5,5,0,0,1,-5,-5v-12a5,5,0,0,1,5,-5z"></path><g id="node_text13" fill="black"><text id="kity_text_127" text-rendering="inherit" font-size="12" dy=".8em" y="501.7000000476837" x="976.5">OCR</text></g></g><g id="minder_node15"><g id="node_expander13" display="none" style="cursor: pointer;"><path id="kity_path_255" fill="white" stroke="gray" d="M966.5,561.5A6,6,0,1,1,954.5,561.5A6,6,0,1,1,966.5,561.5"></path><path id="kity_path_256" fill="none" stroke="gray"></path></g><path id="node_outline14" fill="none" stroke="none" d="M971.5,550.5h96a5,5,0,0,1,5,5v12a5,5,0,0,1,-5,5h-96a5,5,0,0,1,-5,-5v-12a5,5,0,0,1,5,-5z"></path><g id="node_text14" fill="black"><text id="kity_text_129" text-rendering="inherit" font-size="12" dy=".8em" y="553.7000000476837" x="976.5">发送短信、邮件</text></g></g><g id="minder_node16"><g id="node_expander14" display="none" style="cursor: pointer;"><path id="kity_path_258" fill="white" stroke="gray" d="M966.5,613.5A6,6,0,1,1,954.5,613.5A6,6,0,1,1,966.5,613.5"></path><path id="kity_path_259" fill="none" stroke="gray"></path></g><path id="node_outline15" fill="none" stroke="none" d="M971.5,602.5h120a5,5,0,0,1,5,5v12a5,5,0,0,1,-5,5h-120a5,5,0,0,1,-5,-5v-12a5,5,0,0,1,5,-5z"></path><g id="node_text15" fill="black"><text id="kity_text_131" text-rendering="inherit" font-size="12" dy=".8em" y="605.7000000476837" x="976.5">伪远程命令执行工具</text></g></g><g id="minder_node17"><g id="node_expander17" style="cursor: pointer;"><path id="kity_path_267" fill="white" stroke="gray" d="M966.5,691.5A6,6,0,1,1,954.5,691.5A6,6,0,1,1,966.5,691.5"></path><path id="kity_path_268" fill="none" stroke="gray" d="M956,691.5L965,691.5"></path></g><path id="node_outline18" fill="none" stroke="none" d="M971.5,680.5h48a5,5,0,0,1,5,5v12a5,5,0,0,1,-5,5h-48a5,5,0,0,1,-5,-5v-12a5,5,0,0,1,5,-5z"></path><g id="node_text18" fill="black"><text id="kity_text_137" text-rendering="inherit" font-size="12" dy=".8em" y="683.7000000476837" x="976.5">小脚本</text></g></g><g id="minder_node18"><g id="node_expander15" display="none" style="cursor: pointer;"><path id="kity_path_261" fill="white" stroke="gray" d="M1064.5,665.5A6,6,0,1,1,1052.5,665.5A6,6,0,1,1,1064.5,665.5"></path><path id="kity_path_262" fill="none" stroke="gray"></path></g><path id="node_outline16" fill="none" stroke="none" d="M1069.5,654.5h81a5,5,0,0,1,5,5v12a5,5,0,0,1,-5,5h-81a5,5,0,0,1,-5,-5v-12a5,5,0,0,1,5,-5z"></path><g id="node_text16" fill="black"><text id="kity_text_133" text-rendering="inherit" font-size="12" dy=".8em" y="657.7000000476837" x="1074.5">一键 rm /rf /</text></g></g><g id="minder_node19"><g id="node_expander16" display="none" style="cursor: pointer;"><path id="kity_path_264" fill="white" stroke="gray" d="M1064.5,717.5A6,6,0,1,1,1052.5,717.5A6,6,0,1,1,1064.5,717.5"></path><path id="kity_path_265" fill="none" stroke="gray"></path></g><path id="node_outline17" fill="none" stroke="none" d="M1069.5,706.5h137a5,5,0,0,1,5,5v12a5,5,0,0,1,-5,5h-137a5,5,0,0,1,-5,-5v-12a5,5,0,0,1,5,-5z"></path><g id="node_text17" fill="black"><text id="kity_text_135" text-rendering="inherit" font-size="12" dy=".8em" y="709.7000000476837" x="1074.5">更改文件权限（Linux）</text></g></g><g id="minder_node20"><g id="node_expander18" display="none" style="cursor: pointer;"><path id="kity_path_270" fill="white" stroke="gray" d="M966.5,769.5A6,6,0,1,1,954.5,769.5A6,6,0,1,1,966.5,769.5"></path><path id="kity_path_271" fill="none" stroke="gray"></path></g><path id="node_outline19" fill="none" stroke="none" d="M971.5,758.5h113a5,5,0,0,1,5,5v12a5,5,0,0,1,-5,5h-113a5,5,0,0,1,-5,-5v-12a5,5,0,0,1,5,-5z"></path><g id="node_text19" fill="black"><text id="kity_text_139" text-rendering="inherit" font-size="12" dy=".8em" y="761.7000000476837" x="976.5">表白工具（doge）</text></g></g><g id="minder_node21"><g id="node_expander19" display="none" style="cursor: pointer;"><path id="kity_path_273" fill="white" stroke="gray" d="M966.5,821.5A6,6,0,1,1,954.5,821.5A6,6,0,1,1,966.5,821.5"></path><path id="kity_path_274" fill="none" stroke="gray"></path></g><path id="node_outline20" fill="none" stroke="none" d="M971.5,810.5h179a5,5,0,0,1,5,5v12a5,5,0,0,1,-5,5h-179a5,5,0,0,1,-5,-5v-12a5,5,0,0,1,5,-5z"></path><g id="node_text20" fill="black"><text id="kity_text_141" text-rendering="inherit" font-size="12" dy=".8em" y="813.7000000476837" x="976.5">霍曼转移轨道计算（天体力学）</text></g></g><g id="minder_node22"><g id="node_expander26" style="cursor: pointer;"><path id="kity_path_294" fill="white" stroke="gray" d="M787.5,987.5A6,6,0,1,1,775.5,987.5A6,6,0,1,1,787.5,987.5"></path><path id="kity_path_295" fill="none" stroke="gray" d="M777,987.5L786,987.5"></path></g><path id="node_outline27" fill="rgb(238, 243, 246)" stroke="rgb(115, 161, 191)" d="M791.5,974.5h175a3,3,0,0,1,3,3v20a3,3,0,0,1,-3,3h-175a3,3,0,0,1,-3,-3v-20a3,3,0,0,1,3,-3z" stroke-width="1"></path><g id="node_text27" fill="#ff0000"><text id="kity_text_155" text-rendering="inherit" font-size="14" dy=".8em" y="978.4000000953674" x="808.5">灰色工具（均不开放）</text></g></g><g id="minder_node23"><g id="node_expander21" display="none" style="cursor: pointer;"><path id="kity_path_279" fill="white" stroke="gray" d="M1009.5,883.5A6,6,0,1,1,997.5,883.5A6,6,0,1,1,1009.5,883.5"></path><path id="kity_path_280" fill="none" stroke="gray"></path></g><path id="node_outline22" fill="none" stroke="none" d="M1014.5,872.5h123a5,5,0,0,1,5,5v12a5,5,0,0,1,-5,5h-123a5,5,0,0,1,-5,-5v-12a5,5,0,0,1,5,-5z"></path><g id="node_text22" fill="black"><text id="kity_text_145" text-rendering="inherit" font-size="12" dy=".8em" y="875.7000000476837" x="1019.5">SSR-Linux ARM架构</text></g></g><g id="minder_node24"><g id="node_expander22" display="none" style="cursor: pointer;"><path id="kity_path_282" fill="white" stroke="gray" d="M1009.5,935.5A6,6,0,1,1,997.5,935.5A6,6,0,1,1,1009.5,935.5"></path><path id="kity_path_283" fill="none" stroke="gray"></path></g><path id="node_outline23" fill="none" stroke="none" d="M1014.5,924.5h82a5,5,0,0,1,5,5v12a5,5,0,0,1,-5,5h-82a5,5,0,0,1,-5,-5v-12a5,5,0,0,1,5,-5z"></path><g id="node_text23" fill="black"><text id="kity_text_147" text-rendering="inherit" font-size="12" dy=".8em" y="927.7000000476837" x="1019.5">XXS植入工具</text></g></g><g id="minder_node25"><g id="node_expander23" display="none" style="cursor: pointer;"><path id="kity_path_285" fill="white" stroke="gray" d="M1009.5,987.5A6,6,0,1,1,997.5,987.5A6,6,0,1,1,1009.5,987.5"></path><path id="kity_path_286" fill="none" stroke="gray"></path></g><path id="node_outline24" fill="none" stroke="none" d="M1014.5,976.5h83a5,5,0,0,1,5,5v12a5,5,0,0,1,-5,5h-83a5,5,0,0,1,-5,-5v-12a5,5,0,0,1,5,-5z"></path><g id="node_text24" fill="black"><text id="kity_text_149" text-rendering="inherit" font-size="12" dy=".8em" y="979.7000000476837" x="1019.5">ngink 魔改版</text></g></g><g id="minder_node26"><g id="node_expander24" display="none" style="cursor: pointer;"><path id="kity_path_288" fill="white" stroke="gray" d="M1009.5,1039.5A6,6,0,1,1,997.5,1039.5A6,6,0,1,1,1009.5,1039.5"></path><path id="kity_path_289" fill="none" stroke="gray"></path></g><path id="node_outline25" fill="none" stroke="none" d="M1014.5,1028.5h154a5,5,0,0,1,5,5v12a5,5,0,0,1,-5,5h-154a5,5,0,0,1,-5,-5v-12a5,5,0,0,1,5,-5z"></path><g id="node_text25" fill="black"><text id="kity_text_151" text-rendering="inherit" font-size="12" dy=".8em" y="1031.7000000476837" x="1019.5">（伪）DDOS攻击原理展示</text></g></g><g id="minder_node27"><g id="node_expander25" display="none" style="cursor: pointer;"><path id="kity_path_291" fill="white" stroke="gray" d="M1009.5,1091.5A6,6,0,1,1,997.5,1091.5A6,6,0,1,1,1009.5,1091.5"></path><path id="kity_path_292" fill="none" stroke="gray"></path></g><path id="node_outline26" fill="none" stroke="none" d="M1014.5,1080.5h167a5,5,0,0,1,5,5v12a5,5,0,0,1,-5,5h-167a5,5,0,0,1,-5,-5v-12a5,5,0,0,1,5,-5z"></path><g id="node_text26" fill="black"><text id="kity_text_153" text-rendering="inherit" font-size="12" dy=".8em" y="1083.7000000476837" x="1019.5">身份证校验码算法和批量生成</text></g></g><g id="minder_node28"><g id="node_expander29" style="cursor: pointer;"><path id="kity_path_303" fill="white" stroke="gray" d="M385.5,403.5A6,6,0,1,1,373.5,403.5A6,6,0,1,1,385.5,403.5"></path><path id="kity_path_304" fill="none" stroke="gray" d="M375,403.5L384,403.5"></path></g><path id="node_outline30" fill="rgb(238, 243, 246)" stroke="rgb(115, 161, 191)" d="M251.5,390.5h118a3,3,0,0,1,3,3v20a3,3,0,0,1,-3,3h-118a3,3,0,0,1,-3,-3v-20a3,3,0,0,1,3,-3z" stroke-width="1"></path><g id="node_text30" fill="black"><text id="kity_text_161" text-rendering="inherit" font-size="14" dy=".8em" y="394.40000009536743" x="268.5">参与开源项目</text></g></g><g id="minder_node29"><g id="node_expander27" display="none" style="cursor: pointer;"><path id="kity_path_297" fill="white" stroke="gray" d="M220.5,377.5A6,6,0,1,1,208.5,377.5A6,6,0,1,1,220.5,377.5"></path><path id="kity_path_298" fill="none" stroke="gray"></path></g><path id="node_outline28" fill="none" stroke="none" d="M144.5,366.5h59a5,5,0,0,1,5,5v12a5,5,0,0,1,-5,5h-59a5,5,0,0,1,-5,-5v-12a5,5,0,0,1,5,-5z"></path><g id="node_text28" fill="black"><text id="kity_text_157" text-rendering="inherit" font-size="12" dy=".8em" y="369.7000000476837" x="149.5">openwrt </text></g></g><g id="minder_node30"><g id="node_expander28" display="none" style="cursor: pointer;"><path id="kity_path_300" fill="white" stroke="gray" d="M220.5,429.5A6,6,0,1,1,208.5,429.5A6,6,0,1,1,220.5,429.5"></path><path id="kity_path_301" fill="none" stroke="gray"></path></g><path id="node_outline29" fill="none" stroke="none" d="M155.5,418.5h48a5,5,0,0,1,5,5v12a5,5,0,0,1,-5,5h-48a5,5,0,0,1,-5,-5v-12a5,5,0,0,1,5,-5z"></path><g id="node_text29" fill="black"><text id="kity_text_159" text-rendering="inherit" font-size="12" dy=".8em" y="421.7000000476837" x="160.5">树莓派</text></g></g><g id="minder_node31"><g id="node_expander37" style="cursor: pointer;"><path id="kity_path_327" fill="white" stroke="gray" d="M385.5,667.5A6,6,0,1,1,373.5,667.5A6,6,0,1,1,385.5,667.5"></path><path id="kity_path_328" fill="none" stroke="gray" d="M375,667.5L384,667.5"></path></g><path id="node_outline38" fill="rgb(238, 243, 246)" stroke="rgb(115, 161, 191)" d="M306.5,654.5h63a3,3,0,0,1,3,3v20a3,3,0,0,1,-3,3h-63a3,3,0,0,1,-3,-3v-20a3,3,0,0,1,3,-3z" stroke-width="1"></path><g id="node_text38" fill="black"><text id="kity_text_177" text-rendering="inherit" font-size="14" dy=".8em" y="658.4000000953674" x="323.5">web</text></g></g><g id="minder_node32"><g id="node_expander34" style="cursor: pointer;"><path id="kity_path_318" fill="white" stroke="gray" d="M275.5,574.5A6,6,0,1,1,263.5,574.5A6,6,0,1,1,275.5,574.5"></path><path id="kity_path_319" fill="none" stroke="gray" d="M265,574.5L274,574.5"></path></g><path id="node_outline35" fill="none" stroke="none" d="M224.5,563.5h34a5,5,0,0,1,5,5v12a5,5,0,0,1,-5,5h-34a5,5,0,0,1,-5,-5v-12a5,5,0,0,1,5,-5z"></path><g id="node_text35" fill="black"><text id="kity_text_171" text-rendering="inherit" font-size="12" dy=".8em" y="566.7000000476837" x="229.5">网页</text></g></g><g id="minder_node33"><g id="node_expander30" style="cursor: pointer;" display="none"><path id="kity_path_306" fill="white" stroke="gray" d="M187.5,500.5A6,6,0,1,1,175.5,500.5A6,6,0,1,1,187.5,500.5"></path><path id="kity_path_307" fill="none" stroke="gray"></path></g><path id="node_outline31" fill="none" stroke="rgb(57, 80, 96)" d="M107.5,484.5h63a5,5,0,0,1,5,5v22a5,5,0,0,1,-5,5h-63a5,5,0,0,1,-5,-5v-22a5,5,0,0,1,5,-5z" stroke-width="3"></path><g id="node_text31" fill="black"><text id="kity_text_163" text-rendering="inherit" font-size="12" dy=".8em" y="492.7000000476837" x="112.5">官网</text></g><a id="kity_a_178" xlink:href="http://qiandu.wangjunzeblog.club" target="_blank" xlink:title="国内访问(http://qiandu.wangjunzeblog.club)" style="cursor: pointer;"><path id="kity_path_180" fill="rgba(255, 255, 255, 0)" stroke="none" d="M145.5,489.5h16a4,4,0,0,1,4,4v14a4,4,0,0,1,-4,4h-16a4,4,0,0,1,-4,-4v-14a4,4,0,0,1,4,-4z"></path><path id="kity_path_179" fill="#666" stroke="none" d="M160.114,505.724h-1.278c-1.668,0,-3.07,-1.07,-3.599,-2.556h4.877c0.707,0,1.278,-0.571,1.278,-1.278V499.334c0,-0.707,-0.571,-1.278,-1.278,-1.278h-4.877C155.766,496.571,157.168,495.5,158.836,495.5h1.278c2.116,0,3.834,1.716,3.834,3.834V501.89C163.948,504.008,162.23,505.724,160.114,505.724zM148.612,500.612c0,-0.707,0.573,-1.278,1.278,-1.278h7.668c0.707,0,1.278,0.571,1.278,1.278S158.265,501.89,157.558,501.89H149.89C149.185,501.89,148.612,501.319,148.612,500.612zM146.056,499.334V501.89c0,0.707,0.573,1.278,1.278,1.278h4.877c-0.528,1.486,-1.932,2.556,-3.599,2.556H147.334C145.216,505.724,143.5,504.008,143.5,501.89V499.334C143.5,497.216,145.216,495.5,147.334,495.5h1.278c1.667,0,3.071,1.071,3.599,2.556H147.334C146.629,498.056,146.056,498.627,146.056,499.334z"></path></a></g><g id="minder_node34"><g id="node_expander31" display="none" style="cursor: pointer;"><path id="kity_path_309" fill="white" stroke="gray" d="M191.5,553.5A6,6,0,1,1,179.5,553.5A6,6,0,1,1,191.5,553.5"></path><path id="kity_path_310" fill="none" stroke="gray"></path></g><path id="node_outline32" fill="none" stroke="none" d="M25.5,542.5h149a5,5,0,0,1,5,5v12a5,5,0,0,1,-5,5h-149a5,5,0,0,1,-5,-5v-12a5,5,0,0,1,5,-5z"></path><g id="node_text32" fill="black"><text id="kity_text_165" text-rendering="inherit" font-size="12" dy=".8em" y="545.7000000476837" x="30.5">Aria2远程下载（仅内网）</text></g></g><g id="minder_node35"><g id="node_expander32" display="none" style="cursor: pointer;"><path id="kity_path_312" fill="white" stroke="gray" d="M191.5,605.5A6,6,0,1,1,179.5,605.5A6,6,0,1,1,191.5,605.5"></path><path id="kity_path_313" fill="none" stroke="gray"></path></g><path id="node_outline33" fill="none" stroke="none" d="M54.5,594.5h120a5,5,0,0,1,5,5v12a5,5,0,0,1,-5,5h-120a5,5,0,0,1,-5,-5v-12a5,5,0,0,1,5,-5z"></path><g id="node_text33" fill="black"><text id="kity_text_167" text-rendering="inherit" font-size="12" dy=".8em" y="597.7000000476837" x="59.5">DNS服务器（非云）</text></g></g><g id="minder_node36"><g id="node_expander33" display="none" style="cursor: pointer;"><path id="kity_path_315" fill="white" stroke="gray" d="M191.5,657.5A6,6,0,1,1,179.5,657.5A6,6,0,1,1,191.5,657.5"></path><path id="kity_path_316" fill="none" stroke="gray"></path></g><path id="node_outline34" fill="none" stroke="none" d="M138.5,646.5h36a5,5,0,0,1,5,5v12a5,5,0,0,1,-5,5h-36a5,5,0,0,1,-5,-5v-12a5,5,0,0,1,5,-5z"></path><g id="node_text34" fill="black"><text id="kity_text_169" text-rendering="inherit" font-size="12" dy=".8em" y="649.7000000476837" x="143.5">镜像</text></g></g><g id="minder_node37"><g id="node_expander35" display="none" style="cursor: pointer;"><path id="kity_path_321" fill="white" stroke="gray" d="M266.5,715.5A6,6,0,1,1,254.5,715.5A6,6,0,1,1,266.5,715.5"></path><path id="kity_path_322" fill="none" stroke="gray"></path></g><path id="node_outline36" fill="none" stroke="none" d="M37.5,704.5h212a5,5,0,0,1,5,5v12a5,5,0,0,1,-5,5h-212a5,5,0,0,1,-5,-5v-12a5,5,0,0,1,5,-5z"></path><g id="node_text36" fill="black"><text id="kity_text_173" text-rendering="inherit" font-size="12" dy=".8em" y="707.7000000476837" x="42.5">二级域名分配服务（未ICP 公安备案）</text></g></g><g id="minder_node38"><g id="node_expander36" display="none" style="cursor: pointer;"><path id="kity_path_324" fill="white" stroke="gray" d="M275.5,761.5A6,6,0,1,1,263.5,761.5A6,6,0,1,1,275.5,761.5"></path><path id="kity_path_325" fill="none" stroke="gray"></path></g><path id="node_outline37" fill="none" stroke="none" d="M199.5,750.5h59a5,5,0,0,1,5,5v12a5,5,0,0,1,-5,5h-59a5,5,0,0,1,-5,-5v-12a5,5,0,0,1,5,-5z"></path><g id="node_text37" fill="black"><text id="kity_text_175" text-rendering="inherit" font-size="12" dy=".8em" y="753.7000000476837" x="204.5">内网穿透</text></g></g></g></g></svg>